<svg width="25" height="25" viewBox="0 0 25 25" fill="none" xmlns="http://www.w3.org/2000/svg">
<path d="M7.33337 22.5C6.78337 22.5 6.31254 22.3042 5.92087 21.9125C5.52921 21.5208 5.33337 21.05 5.33337 20.5C5.33337 19.95 5.52921 19.4792 5.92087 19.0875C6.31254 18.6958 6.78337 18.5 7.33337 18.5C7.88337 18.5 8.35421 18.6958 8.74587 19.0875C9.13754 19.4792 9.33337 19.95 9.33337 20.5C9.33337 21.05 9.13754 21.5208 8.74587 21.9125C8.35421 22.3042 7.88337 22.5 7.33337 22.5ZM17.3334 22.5C16.7834 22.5 16.3125 22.3042 15.9209 21.9125C15.5292 21.5208 15.3334 21.05 15.3334 20.5C15.3334 19.95 15.5292 19.4792 15.9209 19.0875C16.3125 18.6958 16.7834 18.5 17.3334 18.5C17.8834 18.5 18.3542 18.6958 18.7459 19.0875C19.1375 19.4792 19.3334 19.95 19.3334 20.5C19.3334 21.05 19.1375 21.5208 18.7459 21.9125C18.3542 22.3042 17.8834 22.5 17.3334 22.5ZM6.48337 6.5L8.88337 11.5H15.8834L18.6334 6.5H6.48337ZM5.53337 4.5H20.2834C20.6667 4.5 20.9584 4.67083 21.1584 5.0125C21.3584 5.35417 21.3667 5.7 21.1834 6.05L17.6334 12.45C17.45 12.7833 17.2042 13.0417 16.8959 13.225C16.5875 13.4083 16.25 13.5 15.8834 13.5H8.43337L7.33337 15.5H19.3334V17.5H7.33337C6.58337 17.5 6.01671 17.1708 5.63337 16.5125C5.25004 15.8542 5.23337 15.2 5.58337 14.55L6.93337 12.1L3.33337 4.5H1.33337V2.5H4.58337L5.53337 4.5Z" fill="#7D7D7D"/>
</svg>
